<?xml version="1.0" standalone="no"?>
<!DOCTYPE svg PUBLIC "-//W3C//DTD SVG 20010904//EN"
 "http://www.w3.org/TR/2001/REC-SVG-20010904/DTD/svg10.dtd">
<svg version="1.0" xmlns="http://www.w3.org/2000/svg"
 width="700.000000pt" height="700.000000pt" viewBox="0 0 700.000000 700.000000"
 preserveAspectRatio="xMidYMid meet">
<metadata>
Created by potrace 1.11, written by Peter Selinger 2001-2013
</metadata>
<g transform="translate(0.000000,700.000000) scale(0.100000,-0.100000)"
fill="#000000" stroke="none">
<path d="M1344 6257 c-2 -7 -3 -105 -2 -217 l3 -205 118 -3 117 -3 0 -1229 0
-1229 -122 -3 -123 -3 0 -200 0 -200 538 -3 537 -2 0 205 0 205 -110 0 -110 0
0 540 0 540 718 0 717 0 118 -118 117 -117 0 -423 0 -422 -105 0 -105 0 0
-210 0 -210 525 0 525 0 0 215 0 215 -120 0 -120 0 0 482 0 483 -162 162 -163
163 61 62 c33 35 106 112 162 171 l102 109 0 386 0 387 -243 243 -242 242
-1313 0 c-1056 0 -1314 -2 -1318 -13z m2398 -544 l108 -108 0 -245 0 -245
-118 -118 -117 -117 -708 0 -707 0 0 470 0 470 717 0 718 0 107 -107z"/>
<path d="M2540 3845 l0 -225 110 0 110 0 0 -1245 0 -1245 -110 0 -110 0 0
-200 0 -200 1323 0 1322 0 243 243 242 242 0 455 0 455 -172 172 -173 173 173
173 172 172 0 375 0 375 -253 253 -252 252 -310 -2 -310 -3 -3 -222 -2 -223
132 0 133 0 118 -118 117 -117 0 -235 0 -235 -113 -113 -112 -112 -723 0 -722
0 0 465 0 465 205 0 205 0 0 225 0 225 -620 0 -620 0 0 -225z m2382 -1722
l118 -118 0 -315 0 -315 -112 -112 -113 -113 -722 0 -723 0 0 545 0 545 717 0
718 0 117 -117z"/>
</g>
</svg>
