<svg id="Layer_1" data-name="Layer 1" xmlns="http://www.w3.org/2000/svg" viewBox="0 0 400 180"><defs><style>.cls-1{fill:#cfb484;}.cls-2{fill:#0c0a09;}.cls-3{fill:#fff;}.cls-4{fill:#144733;}</style></defs><title>logo</title><g id="River_Bluff" data-name="River Bluff"><path d="M38.44,113.6q5.89,0,8.82,2.64t3,9q0,7.09-4.08,9.83-3.76,2.56-10.55,2.56l-1,0a5,5,0,0,0,2.22,2,9.14,9.14,0,0,0,4,.79,13.17,13.17,0,0,0,3.58-.51q1.41-.45,1.74-.51a.56.56,0,0,1,.61.43,4.79,4.79,0,0,1,.1,1.35,43.24,43.24,0,0,0,1.92,9.08,40.43,40.43,0,0,0,3,8.08c.8,1,1.5,1.49,2.1,1.49s.91.33.94,1c0,.31-.07.5-.2.59a.93.93,0,0,1-.53.13h-15a1.61,1.61,0,0,1-.75-.15,1.2,1.2,0,0,1-.47-.71l-5.33-23H29.83v17.09q.26,4.94,1.92,4.93h.13a3.54,3.54,0,0,1,.45,0c.92,0,1.45.37,1.6,1.11a.93.93,0,0,1-.16.56.54.54,0,0,1-.48.23H13.35a.59.59,0,0,1-.49-.18,1,1,0,0,1-.15-.61c.16-.81.83-1.22,2-1.22s1.83-1.32,2-4V120.23q-.24-4.64-1.93-4.63h-.28c-1,0-1.63-.37-1.78-1.11a1,1,0,0,1,.19-.67.62.62,0,0,1,.5-.22h25m-5.5,1.68h-.09a2.52,2.52,0,0,0-2.31,1.16,7.91,7.91,0,0,0-.71,4v15.41H32.2l-.9-3.33a.65.65,0,0,1,.13-.36.09.09,0,0,1,.08,0,.21.21,0,0,1,.14.07l1.73,3.6a3.15,3.15,0,0,0,1.65-.4,2.83,2.83,0,0,0,.9-.89,13.33,13.33,0,0,0,.8-4.67q.18-3.45.15-6,.09-5-.61-6.8c-.44-1.15-1.46-1.72-3.06-1.72h-.27m5.5-4.18h-25A3.15,3.15,0,0,0,11,112.16a3.48,3.48,0,0,0-.81,2.33v.26l0,.25a3.9,3.9,0,0,0,3.65,3.08,11.37,11.37,0,0,1,.29,2.22v35.2a7.93,7.93,0,0,1-.23,1.58,4,4,0,0,0-3.71,3.19l0,.24v.25a3.36,3.36,0,0,0,.69,2.17,3,3,0,0,0,2.45,1.12H33.29a3.09,3.09,0,0,0,2.72-1.6,3.22,3.22,0,0,0,1.22,1.16,4.06,4.06,0,0,0,1.92.44h15a3.42,3.42,0,0,0,1.91-.54,3.06,3.06,0,0,0,1.32-2.68v-.12a3.36,3.36,0,0,0-3.06-3.35,3.77,3.77,0,0,1-.42-.44,39.68,39.68,0,0,1-2.71-7.36,42,42,0,0,1-1.81-8.42,6.85,6.85,0,0,0-.2-2,3,3,0,0,0-1.7-2l.09-.06c3.4-2.31,5.14-6.3,5.17-11.89,0-4.9-1.26-8.55-3.79-10.84S43,111.1,38.44,111.1Zm-5.52,6.69h.29a1.73,1.73,0,0,1,.75.11c.14.42.5,1.81.42,5.86v.07c0,1.66,0,3.63-.15,5.87,0,.73-.09,1.32-.14,1.79l-.19-.38-.19-.4-.31-.31a2.83,2.83,0,0,0-1.07-.65v-9.31a6.66,6.66,0,0,1,.32-2.63l.2,0Zm-.59,36.9v-7.1l2.35,10.18a4.29,4.29,0,0,0-2-.62,13,13,0,0,1-.32-2.46Z"/><path d="M75.22,113.6a.61.61,0,0,1,.55.22,1.25,1.25,0,0,1,.16.74c-.08.59-.49.91-1.25.94a2.93,2.93,0,0,0-2.1,1.14,4.43,4.43,0,0,0-.57,1.83,28.53,28.53,0,0,0-.16,3.51V153.4a30.6,30.6,0,0,0,.15,3.32,4.51,4.51,0,0,0,.54,1.9,3,3,0,0,0,2.08,1.07,1.22,1.22,0,0,1,1.31,1.14.67.67,0,0,1-.2.57.81.81,0,0,1-.51.15h-20a.69.69,0,0,1-.49-.16.85.85,0,0,1-.17-.63c.16-.79.82-1.2,2-1.22s1.83-1.14,2-3.37v-36.3q-.24-4.22-2-4.22h-.22c-1.06,0-1.67-.38-1.82-1.16a1,1,0,0,1,.17-.67.65.65,0,0,1,.54-.22h20m0-2.5h-20a3.13,3.13,0,0,0-2.46,1.12,3.47,3.47,0,0,0-.75,2.27v.25l0,.24a3.92,3.92,0,0,0,3.7,3.14,10,10,0,0,1,.25,1.82v36.14a5.43,5.43,0,0,1-.16,1,4,4,0,0,0-3.78,3.18l-.05.25v.25a3.22,3.22,0,0,0,1,2.46,3.14,3.14,0,0,0,2.19.83h20a3.34,3.34,0,0,0,2-.64,3.09,3.09,0,0,0,1.21-2.58v-.13l0-.13a3.71,3.71,0,0,0-3.62-3.38.3.3,0,0,1-.18-.05,4.72,4.72,0,0,1-.12-.71,25.35,25.35,0,0,1-.14-3V122a27.37,27.37,0,0,1,.14-3.18,3.58,3.58,0,0,1,.15-.69.49.49,0,0,1,.16-.12,3.57,3.57,0,0,0,3.61-3.12l0-.16v-.15a3.68,3.68,0,0,0-.63-2.21,3.07,3.07,0,0,0-2.58-1.25ZM55.73,157.41Z"/><path d="M115.59,113.6a.57.57,0,0,1,.5.22,1.24,1.24,0,0,1,.17.74c0,.57-.52,1-1.42,1.24s-2,1.18-3.19,2.78a43.49,43.49,0,0,0-5,12.1q-2.19,7.9-4.21,19.29c.6,1.85,1.32,2.78,2.15,2.79A1.19,1.19,0,0,1,106,153.9c0,.48-.44.84-1.18,1.07s-1.73.58-3,1.06a16.87,16.87,0,0,0-4.23,2.52,24.3,24.3,0,0,0-4.86,5.51,3.74,3.74,0,0,1-.41.55.81.81,0,0,1-.5.24.44.44,0,0,1-.31-.19,1.87,1.87,0,0,1-.2-.4q-1.74-7.12-3.36-14.83t-3.11-14.64q-1.47-6.93-2.68-11.73a27.52,27.52,0,0,0-2-6.16,3.43,3.43,0,0,0-1.82-1.4,1,1,0,0,1-.88-1,1,1,0,0,1,.22-.69.66.66,0,0,1,.48-.2H98.65a.61.61,0,0,1,.51.22,1.16,1.16,0,0,1,.18.74c-.16.64-.83,1.12-2,1.43s-1.84,1.64-2,4a24.45,24.45,0,0,0,.63,4.24c.41,2,.94,4.38,1.59,7.09s1.33,5.55,2,8.49,1.37,5.78,2,8.53q.39-2.25,1-5.22t1.12-6.19q.56-3.21.91-6.18c.24-2,.37-3.7.4-5.15a28.54,28.54,0,0,0-.33-4.42,10.54,10.54,0,0,0-1.38-4,4.74,4.74,0,0,0-2-1.62,1.23,1.23,0,0,1-1-1.06,1,1,0,0,1,.19-.67.7.7,0,0,1,.57-.22h14.54m0-2.5H101.05a3.3,3.3,0,0,0-1.22.22,3.06,3.06,0,0,0-1.18-.22H78.11a3.19,3.19,0,0,0-2.24.92,3.37,3.37,0,0,0-1,2.36v.31a3.48,3.48,0,0,0,2.74,3.23,2.41,2.41,0,0,1,.39.4,28.84,28.84,0,0,1,1.68,5.35c.79,3.15,1.69,7.07,2.66,11.64s2,9.5,3.1,14.63,2.23,10.17,3.38,14.91l0,.16.06.15a4.36,4.36,0,0,0,.45.89,2.94,2.94,0,0,0,2,1.27l.34.06.34,0a3.37,3.37,0,0,0,2-1,5.45,5.45,0,0,0,.73-.94,21.53,21.53,0,0,1,4.3-4.89,14,14,0,0,1,3.57-2.16c1.2-.46,2.16-.8,2.86-1a3.73,3.73,0,0,0,2.92-3.22l0-.24,0-.24a3.6,3.6,0,0,0-3.16-3.34,3.89,3.89,0,0,1-.26-.56c1.29-7.19,2.65-13.38,4-18.4A42,42,0,0,1,113.68,120c1.24-1.59,1.84-1.83,1.85-1.83,2.73-.77,3.16-2.67,3.22-3.45v-.19a3.59,3.59,0,0,0-.69-2.27,3.1,3.1,0,0,0-2.48-1.19Zm-17.41,7.25a6.88,6.88,0,0,0,1.65-.7,3.51,3.51,0,0,0,.66.27h0a3.66,3.66,0,0,1,.7.69,8.32,8.32,0,0,1,1,2.9,25.73,25.73,0,0,1,.3,4c0,1.34-.16,3-.38,4.88s-.49,3.68-.82,5.62c-.44-1.82-.86-3.6-1.28-5.33-.64-2.69-1.17-5-1.58-7a23.65,23.65,0,0,1-.56-3.66,4.68,4.68,0,0,1,.35-1.67Z"/><path d="M144.84,109.48a.31.31,0,0,1,.28.11,1,1,0,0,1,.16.35l2.59,22.18a1.45,1.45,0,0,1-.16.47.38.38,0,0,1-.35.22c-.48-.11-1-1.44-1.65-4a33.19,33.19,0,0,0-4.24-9.2,12,12,0,0,0-2.71-3,5.53,5.53,0,0,0-3.37-1.17,2.4,2.4,0,0,0-2.55,1.58,14,14,0,0,0-.51,4.85v12.38a7.7,7.7,0,0,0,3.76-.71,4.39,4.39,0,0,0,1.52-1.47,11.66,11.66,0,0,0,1.5-5.2c.08-1.77.34-2.72.8-2.85a.4.4,0,0,1,.4.29,1.76,1.76,0,0,1,.11.66v22.18a1.29,1.29,0,0,1-.2.46.39.39,0,0,1-.35.2c-.49-.17-.74-1.31-.74-3.41a12.57,12.57,0,0,0-1.52-6,4.44,4.44,0,0,0-2-1.8,8.15,8.15,0,0,0-3-.45h-.26v17.17a15.29,15.29,0,0,0,.44,4.76,2.56,2.56,0,0,0,2.75,1.74,5.51,5.51,0,0,0,3.56-1.55,13.92,13.92,0,0,0,2.25-2.71,61.77,61.77,0,0,0,3-5.38q1.22-2.47,2-4.32c.51-1.24.9-2.19,1.19-2.87s.54-1,.74-1a.48.48,0,0,1,.46.48,4.89,4.89,0,0,1,0,.94l-2.91,22.28a2.43,2.43,0,0,1-.21.29.41.41,0,0,1-.3.17c-.2,0-.42-.29-.65-.74a8.39,8.39,0,0,0-1.14-1.59,6.5,6.5,0,0,0-2.62-1.58,15.08,15.08,0,0,0-5.08-.68H115.9a.63.63,0,0,1-.54-.21,1,1,0,0,1-.15-.58c.16-.75.83-1.14,2-1.19s1.84-1.31,2-3.79v-36q-.24-4.06-2-4.06h-.12c-1.11,0-1.74-.39-1.9-1.19a.91.91,0,0,1,.2-.67.67.67,0,0,1,.53-.22h20.2q5.18-.25,6.79-2.06c1.08-1.2,1.71-1.89,1.91-2.06m0-2.5h-1l-.72.65c-.13.13-.37.35-2.07,2.24-.15.17-1.11,1-5,1.23H115.94a3.19,3.19,0,0,0-2.36,1,3.39,3.39,0,0,0-.87,2.38v.25l.05.24a4,4,0,0,0,3.7,3.17,7.84,7.84,0,0,1,.24,1.67v35.87a7.66,7.66,0,0,1-.22,1.44,4,4,0,0,0-3.72,3.1l-.05.26v.27a3.45,3.45,0,0,0,.63,2.05,3.09,3.09,0,0,0,2.56,1.24h19.93a12.75,12.75,0,0,1,4.21.52,4.21,4.21,0,0,1,1.61.89,5.62,5.62,0,0,1,.79,1.07,3.64,3.64,0,0,0,2.36,2.06l.46.09.46-.07a2.94,2.94,0,0,0,1.89-1.12,5.09,5.09,0,0,0,.3-.42l.33-.49.07-.58,2.91-22.28v-.1a7.1,7.1,0,0,0,0-1.46,3,3,0,0,0-2.73-2.67h-.21c-2,0-2.78,1.92-3,2.55s-.69,1.66-1.2,2.9c-.3.75-.67,1.59-1.11,2.51h0V128.15a12.1,12.1,0,0,1,.36,1.25c.83,3.46,1.64,5.42,3.54,5.85l.27.06h.27a2.88,2.88,0,0,0,2.52-1.48,3.88,3.88,0,0,0,.46-1.3l.06-.35,0-.35-2.6-22.18,0-.21-.06-.2a3.43,3.43,0,0,0-.56-1.15v0l0,0a2.82,2.82,0,0,0-2.25-1.07Zm-9.68,11h.23a3,3,0,0,1,1.85.65,9.57,9.57,0,0,1,2.11,2.38c.12.18.23.36.34.55h-.13l-.34.1c-2.42.69-2.54,3.7-2.6,5.15a9.15,9.15,0,0,1-1.2,4.09,2,2,0,0,1-.59.52V121.8a12.49,12.49,0,0,1,.33-3.87Zm0,39.37a13,13,0,0,1-.31-3.89V139a2.16,2.16,0,0,1,.62.65,9.92,9.92,0,0,1,1.18,4.69c0,1.72,0,4.91,2.39,5.76l.41.15h.44a2.89,2.89,0,0,0,2.12-.91c-.75,1.49-1.68,3.13-2.78,4.87a11,11,0,0,1-1.86,2.23,2.9,2.9,0,0,1-1.89.85,1.91,1.91,0,0,1-.32,0Z"/><path d="M177.36,113.6q5.91,0,8.83,2.64t3,9q0,7.09-4.08,9.83-3.77,2.56-10.56,2.56l-1,0a5.1,5.1,0,0,0,2.22,2,9.22,9.22,0,0,0,4,.79,13.23,13.23,0,0,0,3.58-.51q1.41-.45,1.74-.51a.56.56,0,0,1,.61.43,5.2,5.2,0,0,1,.1,1.35,43.24,43.24,0,0,0,1.92,9.08,39.81,39.81,0,0,0,3,8.08c.79,1,1.49,1.49,2.09,1.49s.91.33.94,1c0,.31-.06.5-.2.59a.93.93,0,0,1-.53.13h-15a1.54,1.54,0,0,1-.74-.15,1.16,1.16,0,0,1-.48-.71l-5.32-23h-2.77v17.09q.26,4.94,1.92,4.93h.13a3.54,3.54,0,0,1,.45,0c.91,0,1.45.37,1.6,1.11a.93.93,0,0,1-.17.56.53.53,0,0,1-.47.23H152.28a.61.61,0,0,1-.5-.18,1,1,0,0,1-.14-.61c.16-.81.82-1.22,2-1.22s1.83-1.32,2-4V120.23q-.24-4.64-1.94-4.63h-.28q-1.54,0-1.77-1.11a1,1,0,0,1,.18-.67.63.63,0,0,1,.5-.22h25m-5.5,1.68h-.09a2.49,2.49,0,0,0-2.3,1.16,7.8,7.8,0,0,0-.71,4v15.41h2.37l-.91-3.33a.73.73,0,0,1,.13-.36.12.12,0,0,1,.09,0,.19.19,0,0,1,.13.07l1.73,3.6a3.19,3.19,0,0,0,1.66-.4,2.91,2.91,0,0,0,.89-.89,13.1,13.1,0,0,0,.8-4.67q.18-3.45.16-6c.06-3.32-.15-5.59-.61-6.8s-1.47-1.72-3.07-1.72h-.27m5.5-4.18h-25a3.12,3.12,0,0,0-2.37,1.06,3.43,3.43,0,0,0-.81,2.33v.26l.05.25a3.88,3.88,0,0,0,3.64,3.08,11.12,11.12,0,0,1,.3,2.22v35.2a8.78,8.78,0,0,1-.23,1.58,4,4,0,0,0-3.72,3.19l0,.24v.25a3.36,3.36,0,0,0,.69,2.17,3,3,0,0,0,2.45,1.12h19.94a3.09,3.09,0,0,0,2.71-1.6,3.22,3.22,0,0,0,1.22,1.16,4.09,4.09,0,0,0,1.92.44h15a3.42,3.42,0,0,0,1.91-.54,3,3,0,0,0,1.32-2.68v-.12a3.35,3.35,0,0,0-3-3.35,3.77,3.77,0,0,1-.42-.44,39.37,39.37,0,0,1-2.72-7.36,42,42,0,0,1-1.81-8.42,6.85,6.85,0,0,0-.2-2,3,3,0,0,0-1.69-2l.08-.06c3.4-2.31,5.14-6.3,5.18-11.89,0-4.9-1.26-8.55-3.8-10.84s-5.94-3.29-10.5-3.29Zm-5.52,6.69h.29a1.68,1.68,0,0,1,.75.11c.14.42.5,1.81.43,5.86v.07c0,1.66,0,3.63-.15,5.87,0,.73-.09,1.32-.15,1.79l-.18-.38-.19-.4-.32-.31a2.79,2.79,0,0,0-1.06-.65v-9.31a6.56,6.56,0,0,1,.31-2.63l.2,0Zm-.58,36.9v-7.1l2.35,10.18a4.37,4.37,0,0,0-2-.62,13.3,13.3,0,0,1-.31-2.46Z"/><path class="cls-1" d="M34.6,137.59a5,5,0,0,0,2.22,2,9.14,9.14,0,0,0,4,.79,13.17,13.17,0,0,0,3.58-.51q1.41-.45,1.74-.51a.56.56,0,0,1,.61.43,4.79,4.79,0,0,1,.1,1.35,43.24,43.24,0,0,0,1.92,9.08,40.43,40.43,0,0,0,3,8.08c.8,1,1.5,1.49,2.1,1.49s.91.33.94,1c0,.31-.07.5-.2.59a.93.93,0,0,1-.53.13h-15a1.61,1.61,0,0,1-.75-.15,1.2,1.2,0,0,1-.47-.71l-5.33-23H29.83v17.09c.18,3.42.86,5.05,2.05,4.92s1.88.23,2.05,1.09a.93.93,0,0,1-.16.56.54.54,0,0,1-.48.23H13.35a.59.59,0,0,1-.49-.18,1,1,0,0,1-.15-.61c.16-.81.83-1.22,2-1.22s1.83-1.32,2-4V120.23c-.16-3.14-.83-4.69-2-4.63s-1.84-.32-2-1.11a1,1,0,0,1,.19-.67.62.62,0,0,1,.5-.22H38.15q6.12-.06,9.11,2.64t3,9q0,7.09-4.08,9.83T34.6,137.59Zm-1.22-1.81a3.15,3.15,0,0,0,1.65-.4,2.83,2.83,0,0,0,.9-.89,13.33,13.33,0,0,0,.8-4.67q.18-3.45.15-6,.09-5-.61-6.8c-.46-1.21-1.57-1.78-3.33-1.72a2.55,2.55,0,0,0-2.4,1.16,7.91,7.91,0,0,0-.71,4v15.41H32.2l-.9-3.33a.65.65,0,0,1,.13-.36c.06-.07.13-.06.22,0Z"/><path class="cls-1" d="M75.22,113.6a.61.61,0,0,1,.55.22,1.25,1.25,0,0,1,.16.74c-.08.59-.49.91-1.25.94a2.93,2.93,0,0,0-2.1,1.14,4.43,4.43,0,0,0-.57,1.83,28.53,28.53,0,0,0-.16,3.51V153.4a30.6,30.6,0,0,0,.15,3.32,4.51,4.51,0,0,0,.54,1.9,3,3,0,0,0,2.08,1.07,1.22,1.22,0,0,1,1.31,1.14.67.67,0,0,1-.2.57.81.81,0,0,1-.51.15h-20a.69.69,0,0,1-.49-.16.85.85,0,0,1-.17-.63c.16-.79.82-1.2,2-1.22s1.83-1.14,2-3.37v-36.3c-.17-2.86-.83-4.27-2-4.22s-1.83-.34-2-1.16a1,1,0,0,1,.17-.67.65.65,0,0,1,.54-.22Z"/><path class="cls-1" d="M95.32,119.94a24.45,24.45,0,0,0,.63,4.24c.41,2,.94,4.38,1.59,7.09s1.33,5.55,2,8.49,1.37,5.78,2,8.53q.39-2.25,1-5.22t1.12-6.19q.56-3.21.91-6.18c.24-2,.37-3.7.4-5.15a28.54,28.54,0,0,0-.33-4.42,10.54,10.54,0,0,0-1.38-4,4.74,4.74,0,0,0-2-1.62,1.23,1.23,0,0,1-1-1.06,1,1,0,0,1,.19-.67.7.7,0,0,1,.57-.22h14.54a.57.57,0,0,1,.5.22,1.24,1.24,0,0,1,.17.74c0,.57-.52,1-1.42,1.24s-2,1.18-3.19,2.78a43.49,43.49,0,0,0-5,12.1q-2.19,7.9-4.21,19.29c.6,1.85,1.32,2.78,2.15,2.79A1.19,1.19,0,0,1,106,153.9c0,.48-.44.84-1.18,1.07s-1.73.58-3,1.06a16.87,16.87,0,0,0-4.23,2.52,24.3,24.3,0,0,0-4.86,5.51,3.74,3.74,0,0,1-.41.55.81.81,0,0,1-.5.24.44.44,0,0,1-.31-.19,1.87,1.87,0,0,1-.2-.4q-1.74-7.12-3.36-14.83t-3.11-14.64q-1.47-6.93-2.68-11.73a27.52,27.52,0,0,0-2-6.16,3.43,3.43,0,0,0-1.82-1.4,1,1,0,0,1-.88-1,1,1,0,0,1,.22-.69.66.66,0,0,1,.48-.2H98.65a.61.61,0,0,1,.51.22,1.16,1.16,0,0,1,.18.74c-.16.64-.83,1.12-2,1.43S95.49,117.63,95.32,119.94Z"/><path class="cls-1" d="M145.28,109.94l2.59,22.18a1.45,1.45,0,0,1-.16.47.38.38,0,0,1-.35.22c-.48-.11-1-1.44-1.65-4a33.19,33.19,0,0,0-4.24-9.2,12,12,0,0,0-2.71-3,5.53,5.53,0,0,0-3.37-1.17,2.4,2.4,0,0,0-2.55,1.58,14,14,0,0,0-.51,4.85v12.38a7.7,7.7,0,0,0,3.76-.71,4.39,4.39,0,0,0,1.52-1.47,11.66,11.66,0,0,0,1.5-5.2c.08-1.77.34-2.72.8-2.85a.4.4,0,0,1,.4.29,1.76,1.76,0,0,1,.11.66v22.18a1.29,1.29,0,0,1-.2.46.39.39,0,0,1-.35.2c-.49-.17-.74-1.31-.74-3.41a12.57,12.57,0,0,0-1.52-6,4.44,4.44,0,0,0-2-1.8,8.57,8.57,0,0,0-3.25-.45v17.17a15.29,15.29,0,0,0,.44,4.76,2.56,2.56,0,0,0,2.75,1.74,5.51,5.51,0,0,0,3.56-1.55,13.92,13.92,0,0,0,2.25-2.71,61.77,61.77,0,0,0,3-5.38q1.22-2.47,2-4.32c.51-1.24.9-2.19,1.19-2.87s.54-1,.74-1a.48.48,0,0,1,.46.48,4.89,4.89,0,0,1,0,.94l-2.91,22.28a2.43,2.43,0,0,1-.21.29.41.41,0,0,1-.3.17c-.2,0-.42-.29-.65-.74a8.39,8.39,0,0,0-1.14-1.59,6.5,6.5,0,0,0-2.62-1.58,15.08,15.08,0,0,0-5.08-.68H115.9a.63.63,0,0,1-.54-.21,1,1,0,0,1-.15-.58c.16-.75.83-1.14,2-1.19s1.84-1.31,2-3.79v-36q-.24-4.09-2-4.06c-1.16,0-1.83-.37-2-1.19a.91.91,0,0,1,.2-.67.67.67,0,0,1,.53-.22h20.2q5.18-.25,6.79-2.06c1.08-1.2,1.71-1.89,1.91-2.06a.31.31,0,0,1,.28.11A1,1,0,0,1,145.28,109.94Z"/><path class="cls-1" d="M173.52,137.59a5.1,5.1,0,0,0,2.22,2,9.22,9.22,0,0,0,4,.79,13.23,13.23,0,0,0,3.58-.51q1.41-.45,1.74-.51a.56.56,0,0,1,.61.43,5.2,5.2,0,0,1,.1,1.35,43.24,43.24,0,0,0,1.92,9.08,39.81,39.81,0,0,0,3,8.08c.79,1,1.49,1.49,2.09,1.49s.91.33.94,1c0,.31-.06.5-.2.59a.93.93,0,0,1-.53.13h-15a1.54,1.54,0,0,1-.74-.15,1.16,1.16,0,0,1-.48-.71l-5.32-23h-2.77v17.09c.17,3.42.86,5.05,2.05,4.92s1.87.23,2.05,1.09a.93.93,0,0,1-.17.56.53.53,0,0,1-.47.23H152.28a.61.61,0,0,1-.5-.18,1,1,0,0,1-.14-.61c.16-.81.82-1.22,2-1.22s1.83-1.32,2-4V120.23c-.17-3.14-.83-4.69-2-4.63s-1.83-.32-2-1.11a1,1,0,0,1,.18-.67.63.63,0,0,1,.5-.22h24.75q6.12-.06,9.12,2.64t3,9q0,7.09-4.08,9.83T173.52,137.59Zm-1.22-1.81a3.19,3.19,0,0,0,1.66-.4,2.91,2.91,0,0,0,.89-.89,13.1,13.1,0,0,0,.8-4.67q.18-3.45.16-6c.06-3.32-.15-5.59-.61-6.8s-1.58-1.78-3.34-1.72a2.52,2.52,0,0,0-2.39,1.16,7.8,7.8,0,0,0-.71,4v15.41h2.37l-.91-3.33a.73.73,0,0,1,.13-.36c.06-.07.14-.06.22,0Z"/><path d="M231.91,113.71q5.57.09,8.49,3.12a10.79,10.79,0,0,1,2.95,7.83q0,5.44-3.32,7.91t-10.65,3l1.42,0q6.57,0,9.95,2.55,3.74,2.82,3.71,9.72,0,6.38-3.25,10.07t-10,3.76H207a.68.68,0,0,1-.5-.18.81.81,0,0,1-.19-.61c.16-.77.83-1.18,2-1.22s1.83-1.37,2-4V120.34c-.16-3.08-.78-4.63-1.88-4.63h-.11l-.36,0a1.44,1.44,0,0,1-1.64-1.24.83.83,0,0,1,.2-.6.72.72,0,0,1,.53-.19h24.84m-5.12,1.81h-.2a2.62,2.62,0,0,0-2.42,1.11,8.35,8.35,0,0,0-.71,4.17v13.86h3.24a3.6,3.6,0,0,0,2.64-1.42,5.94,5.94,0,0,0,.82-2.72,57.63,57.63,0,0,0,.22-6.05q.06-5.82-.67-7.48a2.45,2.45,0,0,0-2.47-1.49l-.45,0m-.23,44.42h.09a3.83,3.83,0,0,0,1.94-.46,3.12,3.12,0,0,0,1-.89,7.94,7.94,0,0,0,.86-3.76q.16-2.78.14-8a54.68,54.68,0,0,0-.21-6.32,5.81,5.81,0,0,0-.83-2.73,3.06,3.06,0,0,0-1.15-.85,4.61,4.61,0,0,0-1.93-.43h-3v18.64a7,7,0,0,0,.72,3.73,2.63,2.63,0,0,0,2.38,1.09m5.37-48.73H207.07a3.18,3.18,0,0,0-3.23,3.29v.22l0,.21a3.84,3.84,0,0,0,3.68,3.29,12.12,12.12,0,0,1,.27,2.19V155.6a7.49,7.49,0,0,1-.24,1.6,4,4,0,0,0-3.7,3.15l0,.26v.26a3.13,3.13,0,0,0,3.19,3.29h24.21c5.21,0,9.19-1.6,11.85-4.61s3.89-6.87,3.87-11.73c0-5.39-1.57-9.33-4.71-11.7a11.74,11.74,0,0,0-1.55-1c.28-.17.54-.35.8-.53,2.92-2.14,4.39-5.48,4.35-10a13.34,13.34,0,0,0-3.65-9.55c-2.42-2.5-5.87-3.81-10.25-3.88ZM226.86,118l.15,0h.42c.1.25.51,1.55.45,6.43a55.09,55.09,0,0,1-.21,5.79,4.11,4.11,0,0,1-.36,1.55l0,0a3.5,3.5,0,0,1-.32.24.68.68,0,0,1-.37.11H226V120.8a7.83,7.83,0,0,1,.29-2.75,1.24,1.24,0,0,1,.34,0h.27ZM226,139h.47a2.15,2.15,0,0,1,.89.18l.26.14a5.34,5.34,0,0,1,.33,1.49,54.71,54.71,0,0,1,.19,6c0,3.45,0,6.1-.14,7.88a7.44,7.44,0,0,1-.41,2.48,1.27,1.27,0,0,1-.27.19h0a2.12,2.12,0,0,1-.69.09h0l-.32,0a5.85,5.85,0,0,1-.28-2.27V139Z"/><path d="M269.11,113.71a.53.53,0,0,1,.49.23,1.19,1.19,0,0,1,.16.66c-.18.82-.77,1.22-1.8,1.22a4.55,4.55,0,0,1-.71,0l-.25,0q-2,0-2.26,4.79v34.39a8.13,8.13,0,0,0,.65,3.84,2.24,2.24,0,0,0,2.13,1.17h.09a4.83,4.83,0,0,0,3.3-1.71,19.57,19.57,0,0,0,2.24-3,55.73,55.73,0,0,0,5.17-9.46c.84-2.25,1.47-3.4,1.88-3.45a.4.4,0,0,1,.38.28,2.39,2.39,0,0,1,.07.88L277,165.65a2.49,2.49,0,0,1-.19.4.45.45,0,0,1-.3.2c-.19-.05-.4-.3-.62-.75a6.49,6.49,0,0,0-3.84-3.16,14.49,14.49,0,0,0-5-.68H248.36a.8.8,0,0,1-.6-.18.86.86,0,0,1-.18-.61c.16-.75.83-1.15,2-1.19s1.85-1.33,2-3.86V120.27q-.26-4.51-2-4.52c-1.19,0-1.86-.38-2-1.15a1,1,0,0,1,.18-.68.67.67,0,0,1,.55-.21h20.8m0-2.5h-20.8a3.13,3.13,0,0,0-2.48,1.12,3.45,3.45,0,0,0-.75,2.27v.26l0,.26a4,4,0,0,0,3.69,3.09,10.62,10.62,0,0,1,.3,2.13v35.39a7.49,7.49,0,0,1-.24,1.5,4,4,0,0,0-3.74,3.1l-.06.27v.27a3.29,3.29,0,0,0,.89,2.36,3.24,3.24,0,0,0,2.39.93h18.71a12.12,12.12,0,0,1,4.12.52,4.42,4.42,0,0,1,1.7.94,4.53,4.53,0,0,1,.77,1,3.59,3.59,0,0,0,2.3,2.07l.48.11.48-.08a2.93,2.93,0,0,0,2-1.35,5.39,5.39,0,0,0,.39-.8l.09-.25.05-.25,3.63-22.15,0-.11v-.11a4.48,4.48,0,0,0-.23-2,2.88,2.88,0,0,0-2.71-1.87h-.13l-.13,0c-2,.21-2.94,2.32-4,5.06a52.37,52.37,0,0,1-4.92,9l0,0,0,0a17,17,0,0,1-1.95,2.58,2.36,2.36,0,0,1-1.53.88,7.33,7.33,0,0,1-.28-2.49V120.62a10,10,0,0,1,.36-2.31H268a4,4,0,0,0,4.24-3.21l.06-.25v-.26a3.65,3.65,0,0,0-.58-2,3,3,0,0,0-2.57-1.34Z"/><path d="M305.94,113.71l7.43,0,6.74,0a.55.55,0,0,1,.51.23,1.34,1.34,0,0,1-.94,1.89,6.37,6.37,0,0,0-2.47,2.27,15.75,15.75,0,0,0-2.31,5.76,59.42,59.42,0,0,0-1,12.69v13a19.08,19.08,0,0,1-.63,4.6,14.77,14.77,0,0,1-1.75,4.28A9.43,9.43,0,0,1,307,162a19.86,19.86,0,0,1-7.26,1.22q-7.8,0-10.81-3.43t-2.87-10.86V120.34q-.24-4.62-1.94-4.62h-.24c-1,0-1.64-.35-1.79-1.06a1.58,1.58,0,0,1,.15-.76.58.58,0,0,1,.51-.19h19.81a.66.66,0,0,1,.48.16,1,1,0,0,1,.18.73c-.15.76-.78,1.14-1.88,1.14h-.17c-1.16,0-1.82,1.55-2,4.67v31.35c0,3,.38,5.12,1.2,6.47a4.31,4.31,0,0,0,4,2h.09a7.49,7.49,0,0,0,5.77-2.66q2.31-2.62,2.39-7.61V135.52a49,49,0,0,0-1-10.66,18.74,18.74,0,0,0-2.51-6.37,8.27,8.27,0,0,0-2.78-2.69c-.73-.29-1.11-.7-1.14-1.2a1,1,0,0,1,.19-.65.63.63,0,0,1,.54-.24m0-2.5a3.27,3.27,0,0,0-1.69.46,3.24,3.24,0,0,0-1.7-.46H282.74a3,3,0,0,0-2.59,1.31,3.88,3.88,0,0,0-.57,2v.31l.06.31a3.83,3.83,0,0,0,3.62,3,10.86,10.86,0,0,1,.3,2.21v28.51c-.1,5.6,1,9.71,3.49,12.5s6.67,4.29,12.69,4.29a22.5,22.5,0,0,0,8.2-1.4,12,12,0,0,0,5.64-4.47v0l0,0a17.22,17.22,0,0,0,2-5,21.63,21.63,0,0,0,.71-5.21v-13a57.49,57.49,0,0,1,1-12.09c.75-3.1,1.48-4.35,1.85-4.82a5.72,5.72,0,0,1,1.37-1.47,3.85,3.85,0,0,0,2.7-3.44v-.13a3.74,3.74,0,0,0-.46-1.9,3,3,0,0,0-2.68-1.49l-6.72,0-7.45,0Zm-4,7a4.49,4.49,0,0,0,2.2-.78,5.23,5.23,0,0,0,1.23.69A7.2,7.2,0,0,1,307.1,120a16.45,16.45,0,0,1,2.1,5.47,47.78,47.78,0,0,1,.92,10.11v14.41c0,2.66-.64,4.68-1.77,6a5,5,0,0,1-3.91,1.81h-.07c-1.36,0-1.67-.51-1.84-.79-.32-.52-.86-1.89-.84-5.15v-31.3a10.47,10.47,0,0,1,.3-2.26Z"/><path d="M349.2,109.58a.34.34,0,0,1,.29.12,1.1,1.1,0,0,1,.15.34l2.6,22.11a1,1,0,0,1-.15.53.5.5,0,0,1-.36.3c-.49-.11-1-1.45-1.66-4a33.69,33.69,0,0,0-4.24-9.26,12.15,12.15,0,0,0-2.71-3,5.53,5.53,0,0,0-3.37-1.17,2.41,2.41,0,0,0-2.57,1.59,14.87,14.87,0,0,0-.49,4.85V134.4a7.49,7.49,0,0,0,3.78-.73,4,4,0,0,0,1.5-1.52,11.29,11.29,0,0,0,1.48-5.16q.09-2.62.78-2.82a.46.46,0,0,1,.4.26,1.28,1.28,0,0,1,.15.63v22.18a.88.88,0,0,1-.15.51.51.51,0,0,1-.44.21q-.69-.3-.72-3.48a12.62,12.62,0,0,0-1.5-5.89,4.39,4.39,0,0,0-2-1.72,8.5,8.5,0,0,0-3.3-.52v18.31q.31,5.15,2.34,5.15a1,1,0,0,0,.24,0,7.42,7.42,0,0,1,.77,0c1,0,1.63.37,1.79,1.13a.86.86,0,0,1-.17.61.77.77,0,0,1-.56.18H320.26a.67.67,0,0,1-.52-.18.74.74,0,0,1-.17-.55c.16-.86.83-1.29,2-1.3s1.83-1.33,2-3.95V120.21q-.24-4.42-1.92-4.43h-.32c-1,0-1.6-.39-1.75-1.19a1,1,0,0,1,.2-.68.69.69,0,0,1,.53-.21h20.2q5.17-.27,6.79-2.07c1.08-1.19,1.72-1.88,1.91-2.06m0-2.5h-1l-.71.66c-.13.12-.38.35-2.08,2.23-.15.17-1.11,1-5,1.24H320.3a3.2,3.2,0,0,0-2.36,1,3.35,3.35,0,0,0-.87,2.38v.23l0,.23a3.91,3.91,0,0,0,3.69,3.21,11.45,11.45,0,0,1,.26,2V155.6a7.55,7.55,0,0,1-.23,1.57,4,4,0,0,0-3.72,3.3l0,.23v.23a3.23,3.23,0,0,0,.83,2.25,3.18,3.18,0,0,0,2.36,1H341.1a3.2,3.2,0,0,0,2.34-.93,3.23,3.23,0,0,0,.89-2.36v-.28l-.06-.27a4,4,0,0,0-4.23-3.08h-.43a10.57,10.57,0,0,1-.42-2.67V139.26a2,2,0,0,1,.63.6,10.06,10.06,0,0,1,1.15,4.65c0,2.33.21,4.88,2.23,5.75l.47.2h.52a3,3,0,0,0,2.47-1.25,3.32,3.32,0,0,0,.62-2V128.3a12.1,12.1,0,0,1,.36,1.25c.83,3.48,1.64,5.44,3.54,5.87l.45.1.46-.07a3,3,0,0,0,2.2-1.58,3.56,3.56,0,0,0,.45-1.72V132l0-.15-2.6-22.11,0-.2-.06-.2a3.48,3.48,0,0,0-.56-1.16,2.86,2.86,0,0,0-2.28-1.11Zm-9.7,11,.25,0a3,3,0,0,1,1.85.66,9.34,9.34,0,0,1,2.11,2.37c.13.21.26.41.38.62h-.21l-.34.1c-2.43.7-2.54,3.69-2.58,5.14a9,9,0,0,1-1.18,4l0,0,0,0a1.7,1.7,0,0,1-.55.5v-9.61a13.1,13.1,0,0,1,.31-3.87Z"/><path d="M384.25,109.58a.34.34,0,0,1,.29.12.9.9,0,0,1,.15.34l2.6,22.11a1,1,0,0,1-.15.53.48.48,0,0,1-.36.3c-.49-.11-1-1.45-1.65-4a33.76,33.76,0,0,0-4.25-9.26,12,12,0,0,0-2.71-3,5.53,5.53,0,0,0-3.37-1.17,2.41,2.41,0,0,0-2.57,1.59,14.87,14.87,0,0,0-.49,4.85V134.4a7.44,7.44,0,0,0,3.78-.73,4,4,0,0,0,1.5-1.52,11.43,11.43,0,0,0,1.49-5.16c.06-1.75.31-2.69.77-2.82a.45.45,0,0,1,.4.26,1.18,1.18,0,0,1,.16.63v22.18a.82.82,0,0,1-.16.51.51.51,0,0,1-.44.21q-.69-.3-.72-3.48a12.39,12.39,0,0,0-1.5-5.89,4.42,4.42,0,0,0-2-1.72,8.59,8.59,0,0,0-3.31-.52v18.31q.31,5.15,2.35,5.15a1,1,0,0,0,.24,0,7.07,7.07,0,0,1,.76,0c1,0,1.63.37,1.8,1.13a.86.86,0,0,1-.18.61.74.74,0,0,1-.55.18H355.31a.67.67,0,0,1-.52-.18.79.79,0,0,1-.17-.55c.16-.86.83-1.29,2-1.3s1.83-1.33,2-3.95V120.21q-.24-4.42-1.92-4.43h-.31c-1,0-1.61-.39-1.76-1.19a1,1,0,0,1,.2-.68.69.69,0,0,1,.53-.21h20.21q5.16-.27,6.78-2.07c1.08-1.19,1.72-1.88,1.91-2.06m0-2.5h-1l-.72.66c-.13.12-.38.35-2.07,2.23-.16.17-1.12,1-5,1.24H355.35a3.2,3.2,0,0,0-2.36,1,3.4,3.4,0,0,0-.87,2.38v.23l.05.23a3.89,3.89,0,0,0,3.68,3.21,10.53,10.53,0,0,1,.26,2V155.6a7.55,7.55,0,0,1-.23,1.57,4,4,0,0,0-3.71,3.3l-.05.23v.23a3.23,3.23,0,0,0,.84,2.25,3.16,3.16,0,0,0,2.35,1h20.85a3.17,3.17,0,0,0,2.33-.93,3.23,3.23,0,0,0,.9-2.36v-.28l-.06-.27a4,4,0,0,0-4.24-3.08h-.42a10.89,10.89,0,0,1-.43-2.67V139.26a1.89,1.89,0,0,1,.63.6,10.06,10.06,0,0,1,1.15,4.65c0,2.33.22,4.88,2.23,5.75l.47.2h.52a3,3,0,0,0,2.47-1.25,3.33,3.33,0,0,0,.63-2V128.3c.14.44.26.85.36,1.25.83,3.48,1.64,5.44,3.53,5.87l.45.1.46-.07a3,3,0,0,0,2.2-1.58,3.45,3.45,0,0,0,.45-1.72V132l0-.15-2.59-22.11,0-.2,0-.2a3.49,3.49,0,0,0-.57-1.16,2.84,2.84,0,0,0-2.28-1.11Zm-9.69,11,.24,0a3,3,0,0,1,1.85.66,9.18,9.18,0,0,1,2.12,2.37l.37.62h-.21l-.34.1c-2.43.7-2.53,3.69-2.58,5.14a8.9,8.9,0,0,1-1.18,4l0,0,0,0a1.56,1.56,0,0,1-.55.5v-9.61a12.94,12.94,0,0,1,.32-3.87Z"/><path class="cls-1" d="M231.91,113.71q5.57.09,8.49,3.12a10.79,10.79,0,0,1,2.95,7.83q0,5.44-3.32,7.91t-10.65,3q7.63-.3,11.37,2.52t3.71,9.72q0,6.38-3.25,10.07t-10,3.76H207a.68.68,0,0,1-.5-.18.81.81,0,0,1-.19-.61c.16-.77.83-1.18,2-1.22s1.83-1.37,2-4V120.34c-.16-3.19-.83-4.73-2-4.62s-1.84-.3-2-1.22a.83.83,0,0,1,.2-.6.72.72,0,0,1,.53-.19Zm-5.12,1.81a2.73,2.73,0,0,0-2.62,1.11,8.35,8.35,0,0,0-.71,4.17v13.86h3.24a3.6,3.6,0,0,0,2.64-1.42,5.94,5.94,0,0,0,.82-2.72,57.63,57.63,0,0,0,.22-6.05q.06-5.82-.67-7.48A2.58,2.58,0,0,0,226.79,115.52Zm3.81,31.29a54.68,54.68,0,0,0-.21-6.32,5.81,5.81,0,0,0-.83-2.73,3.06,3.06,0,0,0-1.15-.85,4.61,4.61,0,0,0-1.93-.43h-3v18.64a7,7,0,0,0,.72,3.73,2.68,2.68,0,0,0,2.47,1.09,3.83,3.83,0,0,0,1.94-.46,3.12,3.12,0,0,0,1-.89,7.94,7.94,0,0,0,.86-3.76Q230.63,152.05,230.6,146.81Z"/><path class="cls-1" d="M264.74,120.54v34.39a8.13,8.13,0,0,0,.65,3.84,2.27,2.27,0,0,0,2.22,1.17,4.83,4.83,0,0,0,3.3-1.71,19.57,19.57,0,0,0,2.24-3,55.73,55.73,0,0,0,5.17-9.46c.84-2.25,1.47-3.4,1.88-3.45a.4.4,0,0,1,.38.28,2.39,2.39,0,0,1,.07.88L277,165.65a2.49,2.49,0,0,1-.19.4.45.45,0,0,1-.3.2c-.19-.05-.4-.3-.62-.75a6.49,6.49,0,0,0-3.84-3.16,14.49,14.49,0,0,0-5-.68H248.36a.8.8,0,0,1-.6-.18.86.86,0,0,1-.18-.61c.16-.75.83-1.15,2-1.19s1.85-1.33,2-3.86V120.27q-.26-4.51-2-4.52c-1.19,0-1.86-.38-2-1.15a1,1,0,0,1,.18-.68.67.67,0,0,1,.55-.21h20.8a.53.53,0,0,1,.49.23,1.19,1.19,0,0,1,.16.66c-.21,1-1.05,1.38-2.51,1.17S265,117.15,264.74,120.54Z"/><path class="cls-1" d="M299.18,120.41v31.35c0,3,.38,5.12,1.2,6.47a4.34,4.34,0,0,0,4.07,2,7.49,7.49,0,0,0,5.77-2.66q2.31-2.62,2.39-7.61V135.52a49,49,0,0,0-1-10.66,18.74,18.74,0,0,0-2.51-6.37,8.27,8.27,0,0,0-2.78-2.69c-.73-.29-1.11-.7-1.14-1.2a1,1,0,0,1,.19-.65.63.63,0,0,1,.54-.24l7.43,0,6.74,0a.55.55,0,0,1,.51.23,1.34,1.34,0,0,1-.94,1.89,6.37,6.37,0,0,0-2.47,2.27,15.75,15.75,0,0,0-2.31,5.76,59.42,59.42,0,0,0-1,12.69v13a19.08,19.08,0,0,1-.63,4.6,14.77,14.77,0,0,1-1.75,4.28A9.43,9.43,0,0,1,307,162a19.86,19.86,0,0,1-7.26,1.22q-7.8,0-10.81-3.43t-2.87-10.86V120.34q-.26-4.68-2-4.62c-1.16,0-1.82-.31-2-1.06a1.58,1.58,0,0,1,.15-.76.58.58,0,0,1,.51-.19h19.81a.66.66,0,0,1,.48.16,1,1,0,0,1,.18.73c-.16.79-.83,1.17-2,1.14S299.34,117.26,299.18,120.41Z"/><path class="cls-1" d="M349.64,110l2.6,22.11a1,1,0,0,1-.15.53.5.5,0,0,1-.36.3c-.49-.11-1-1.45-1.66-4a33.69,33.69,0,0,0-4.24-9.26,12.15,12.15,0,0,0-2.71-3,5.53,5.53,0,0,0-3.37-1.17,2.41,2.41,0,0,0-2.57,1.59,14.87,14.87,0,0,0-.49,4.85V134.4a7.49,7.49,0,0,0,3.78-.73,4,4,0,0,0,1.5-1.52,11.29,11.29,0,0,0,1.48-5.16q.09-2.62.78-2.82a.46.46,0,0,1,.4.26,1.28,1.28,0,0,1,.15.63v22.18a.88.88,0,0,1-.15.51.51.51,0,0,1-.44.21q-.69-.3-.72-3.48a12.62,12.62,0,0,0-1.5-5.89,4.39,4.39,0,0,0-2-1.72,8.5,8.5,0,0,0-3.3-.52v18.31q.33,5.44,2.58,5.13c1.5-.2,2.36.15,2.56,1.08a.86.86,0,0,1-.17.61.77.77,0,0,1-.56.18H320.26a.67.67,0,0,1-.52-.18.74.74,0,0,1-.17-.55c.16-.86.83-1.29,2-1.3s1.83-1.33,2-3.95V120.21c-.16-3-.83-4.49-2-4.42s-1.84-.33-2-1.19a1,1,0,0,1,.2-.68.69.69,0,0,1,.53-.21h20.2q5.17-.27,6.79-2.07c1.08-1.19,1.72-1.88,1.91-2.06a.34.34,0,0,1,.29.12A1.1,1.1,0,0,1,349.64,110Z"/><path class="cls-1" d="M384.69,110l2.6,22.11a1,1,0,0,1-.15.53.48.48,0,0,1-.36.3c-.49-.11-1-1.45-1.65-4a33.76,33.76,0,0,0-4.25-9.26,12,12,0,0,0-2.71-3,5.53,5.53,0,0,0-3.37-1.17,2.41,2.41,0,0,0-2.57,1.59,14.87,14.87,0,0,0-.49,4.85V134.4a7.44,7.44,0,0,0,3.78-.73,4,4,0,0,0,1.5-1.52,11.43,11.43,0,0,0,1.49-5.16c.06-1.75.31-2.69.77-2.82a.45.45,0,0,1,.4.26,1.18,1.18,0,0,1,.16.63v22.18a.82.82,0,0,1-.16.51.51.51,0,0,1-.44.21q-.69-.3-.72-3.48a12.39,12.39,0,0,0-1.5-5.89,4.42,4.42,0,0,0-2-1.72,8.59,8.59,0,0,0-3.31-.52v18.31c.22,3.63,1.09,5.34,2.59,5.13s2.35.15,2.56,1.08a.86.86,0,0,1-.18.61.74.74,0,0,1-.55.18H355.31a.67.67,0,0,1-.52-.18.79.79,0,0,1-.17-.55c.16-.86.83-1.29,2-1.3s1.83-1.33,2-3.95V120.21q-.24-4.53-2-4.42c-1.17.06-1.84-.33-2-1.19a1,1,0,0,1,.2-.68.69.69,0,0,1,.53-.21h20.21q5.16-.27,6.78-2.07c1.08-1.19,1.72-1.88,1.91-2.06a.34.34,0,0,1,.29.12A.9.9,0,0,1,384.69,110Z"/></g><g id="Gator"><path id="Line" class="cls-2" d="M386.68,97.19v6.49c-123.78,0-253-.05-376.81,0V97.19H386.68Z"/><path id="Eye_fill" class="cls-3" d="M143.9,59.76c.1.87-.52,1.43-1,2a66.55,66.55,0,0,1-12.67,12.42,10.81,10.81,0,0,1-5.66,2.09,13.27,13.27,0,0,1-4.64-.53,21.37,21.37,0,0,1-13.37-10.51c-3.1-5.66-2.42-11.31.22-16.91a29.76,29.76,0,0,1,3.57-5.63,2.49,2.49,0,0,0,.78-1.4c1.5-.26,2.61.64,3.76,1.31,2.57,1.51,4.91,3.44,7.77,4.44.76.27.73.9.77,1.47.1,1.26.16,2.5.16,3.72,0,5.35-1.19,10.32-5.93,14.14,1.67.38,3.15-.25,4.69-.68,5.73-1.59,10.71-4.28,13.54-9.88.3-.58.61-.67,1.15-.4.77.4,1.57.74,2.31,1.19C140.94,57.57,142.11,59.1,143.9,59.76Z"/><path class="cls-4" d="M383.34,81.37c5.07,5.74.65,13.39-5.5,14.59A14.28,14.28,0,0,1,374,95.7a49.93,49.93,0,0,0-17.31,1.49H41c1.45-3.49,4.31-5.81,7.15-8.16,4.49-3.71,10-4.7,15.47-5.64,4.25-.73,8.51-1.31,12.77-2a4.38,4.38,0,0,0,2-.57,44,44,0,0,0-4.87-3.61c-2.18-1.53-4.39-3-6.56-4.6a11.65,11.65,0,0,1-2.33-2.27,2.51,2.51,0,0,1,0-3.42,21.38,21.38,0,0,1,9.8-7.24l1-.35c.72-.25,1.46-.47,2.22-.67a1.91,1.91,0,0,1,.79,0,21.31,21.31,0,0,1,13.8,8.56l.57.81c.55.83,1.07,1.7,1.56,2.62,2.2,4.16,3.31,8.62,4.37,13.12a34.78,34.78,0,0,0,1.29,4.73c1.41,3.7,3.69,5,7.55,4.2a30.19,30.19,0,0,0,3.45-1,53.34,53.34,0,0,0,19.26-11.47,62.37,62.37,0,0,0,7.33-8.09,22,22,0,0,1,5.32-5,6.56,6.56,0,0,1,6.51-.7c7.12,2.93,13.87,6.62,20.92,9.69a131,131,0,0,0,21.86,7.71,43.51,43.51,0,0,0,17,.42c4.29-.68,8.56-1.53,13.13-2.36a85.11,85.11,0,0,0-9.15-.66c-7.51-.54-15-1.27-22.24-3.48-5.38-1.66-10.24-4.58-15.39-6.81-1.63-.71-3.3-1.35-5.26-2.14,2.55-.56,4.87-.69,7.06-1.4a11.93,11.93,0,0,0,4.24-2.05,4,4,0,0,0,1.25-4.85A10.27,10.27,0,0,0,179.4,56c-.77-.59-1.44-1.31-2.18-1.94-.3-.25-.66-.8-1.09-.35s.12.73.42,1a11.64,11.64,0,0,1,1.78,2.11c1.78,2.77,1.27,5.23-1.55,6.94s-5.87,1.88-8.87,2.66c-5.43,1.4-10.29-.89-15.35-1.92-2.28-.46-4.46-1.49-7-1.15.38-1.33,1.64-2,1.9-3.24,3.58.2,7-.82,10.47-1.38a1.14,1.14,0,0,0,.78-.5c.18-.47-.34-.59-.62-.81l-1.7-1.27c-4.71-3.41-9.3-7.07-14.63-9.46-8.08-3.63-16.08-7.5-24.66-9.89-4.08-1.14-8.17-1.67-12.27-.06A37.86,37.86,0,0,0,93.44,44c-1.16,1-2.63,1.8-3.52,3.53,2.67-1,5-1.88,7.45-2.72a54,54,0,0,1,9.81-2.94c-1.06,1.83-2.32,3.54-3.26,5.46-5,10.21-2.28,20.6,7.08,27.05,3.91,2.7,8.12,4.45,12.78,4.37l1,0a16.6,16.6,0,0,0,2-.23c1.21-.21,2.37-.65,3.54-1a.61.61,0,0,1-.24.81c-.31.25-.62.5-.94.74l-.89.68a43.71,43.71,0,0,1-14.71,7.58,16.11,16.11,0,0,1-3.72.51,6.58,6.58,0,0,1-6.15-3.32,41.31,41.31,0,0,1-3.41-8.12,42.11,42.11,0,0,0-4.87-9.52c-.28-.41-.58-.82-.88-1.23a41,41,0,0,0-4.92-5.49c-2.18-2-4.1-4.36-6.16-6.54a30.76,30.76,0,0,0-4.25-3.8,7.88,7.88,0,0,1-3.22-8.2c1.65-9.31,6.73-15.7,15.6-19.42C99,19,106.85,17.83,114.87,17.3c3.75-.25,7.52-.33,11.25-.7a17,17,0,0,1,9.43,2.11c4.64,2.32,8.94,5.23,13.49,7.69a51.85,51.85,0,0,0,7.5,3.23C160,30.86,163,33,166,35.06a59.88,59.88,0,0,1,13.17,11.43c.39.49.76,1,1.41,1.87a7.37,7.37,0,0,0-1.22-4.72,54,54,0,0,0-11.67-12l-1-.77a4.2,4.2,0,0,1,2.53-.69c6.66.82,13.27,1.84,19.6,4.2A51.74,51.74,0,0,1,199.33,40a130.12,130.12,0,0,0,26.46,13.1c3.7,1.38,7.06,3.6,10.92,4.71a120.5,120.5,0,0,0,24.42,4.28c2.49.18,5,.23,7.65.35a5,5,0,0,1-1.73,1.47c-6.26,4.26-12.53,8.49-18.77,12.78-1.38.94-2.64,2-3.95,3.09,4-2.07,8-4.11,11.94-6.24,7.19-3.88,14.28-8,21.48-11.81,3-1.62,5.65-3.64,8.47-5.48,8.51-5.54,17.86-6.89,27.75-5.43.7.1,1.39.26,2.09.34a22.67,22.67,0,0,1,13.63,6.66c3.8,3.7,7.66,7.3,10.32,12a16.12,16.12,0,0,1,2.1,7c.32,4.58,3,6,7.05,3.83a26.8,26.8,0,0,0,8.13-6.49,37.39,37.39,0,0,1,3.28-3.24,5.23,5.23,0,0,0-3.55.9,60.14,60.14,0,0,0-8.28,6.37,23.31,23.31,0,0,1-1.93,1.51c-1.42.94-1.9.73-2.11-.92-.17-1.35-.2-2.73-.45-4.06C343,68,339.44,62.41,335.53,57.07c-1.63-2.23-3.44-4.34-5.27-6.63,8.53-3.3,16.67-7.51,26.16-6.35a36.86,36.86,0,0,1,7.5,1.54A7.73,7.73,0,0,1,369,51a63.73,63.73,0,0,1,2.29,13.84,21.61,21.61,0,0,1,.24,3.58c-.17,2.13.85,3.42,2.47,4.61A58.93,58.93,0,0,1,383.34,81.37Zm-64.93,6.55c1.68-1.41,2-3.44.72-5.61a11.71,11.71,0,0,0-4.24-4.45,42.13,42.13,0,0,0-18.08-5.61,16.52,16.52,0,0,0-3.58.34,8.7,8.7,0,0,0-1.57.43c-2.2.84-3,2.37-2.37,4.67a10.2,10.2,0,0,0,1.22,2.66,35.39,35.39,0,0,0,6.17,7.15c.25.24.54.75.92.44s0-.76-.3-1a16.65,16.65,0,0,1-3.22-4.7c-.86-2.08-.16-3.34,2-3.81a18,18,0,0,1,6.34.08,22.57,22.57,0,0,1,11.79,4.78c1.27,1,2.41,2.23,2.51,4,0,.4-.25.92.35,1.12S318,88.24,318.41,87.92Z"/><path class="cls-4" d="M225.27,50.85c-.63.28-1-.09-1.33-.28-7.34-3.74-14.48-7.71-20.6-13.4a43.07,43.07,0,0,0-12.8-8.39,33.83,33.83,0,0,0-17-2.38,3.94,3.94,0,0,1-1.9,0,16.38,16.38,0,0,1,3.18-4.67,1.35,1.35,0,0,1,.8-.51c4.45-.41,8.13-2.71,11.83-4.88a5.24,5.24,0,0,1,4-.66c2,.44,4.07.75,6.09,1.22a16.28,16.28,0,0,0,6.81-.15,2.43,2.43,0,0,1,2.13.43c2.4,1.79,4.8,3.58,7.23,5.34S217,27,218,29.59C220.59,36.62,222.4,43.91,225.27,50.85Z"/><path class="cls-4" d="M76.09,57.51a6.12,6.12,0,0,1-1.19.66c-.33.14-.67.25-1,.36s-.66.2-1,.32a31.35,31.35,0,0,0-8.71,4.41Q57.26,68.75,63.33,75c1.06,1.09,2.24,2.06,3.51,3.22-1.77.51-3.47.95-5.12,1.5-5.61,1.87-11.07,4-15.63,7.95a21.07,21.07,0,0,0-6,8.23,3.07,3.07,0,0,0-.29,1.25H26.53a66.07,66.07,0,0,1,9-11.45c9-9.64,19.15-18.1,29.32-26.5C67,57.47,69.2,55.74,71.33,54c.79-.66,1.34-1,1.87.31A7.73,7.73,0,0,0,76.09,57.51Z"/><path class="cls-1" d="M319.13,82.31c1.25,2.17,1,4.2-.72,5.61-.38.32-.77.65-1.31.47s-.33-.72-.35-1.12c-.1-1.8-1.24-3-2.51-4a22.57,22.57,0,0,0-11.79-4.78,18,18,0,0,0-6.34-.08c-2.19.47-2.89,1.73-2,3.81a16.65,16.65,0,0,0,3.22,4.7c.27.29.81.63.3,1s-.67-.2-.92-.44a35.39,35.39,0,0,1-6.17-7.15,10.2,10.2,0,0,1-1.22-2.66c-.6-2.3.17-3.83,2.37-4.67a8.7,8.7,0,0,1,1.57-.43,16.52,16.52,0,0,1,3.58-.34,42.13,42.13,0,0,1,18.08,5.61A11.71,11.71,0,0,1,319.13,82.31Z"/><path class="cls-1" d="M387.24,79.19a46.54,46.54,0,0,0-10.38-9.37,1.32,1.32,0,0,1-.68-1.17c-.08-1.68-.18-3.37-.34-5.05a60,60,0,0,0-2.64-14.23A11.13,11.13,0,0,0,366.3,42a37.92,37.92,0,0,0-22.65-1c-5.36,1.41-10.42,3.73-15.56,5.8-2,.79-3.82,2.07-6.21,1.42a54.1,54.1,0,0,0-20-1.88,41.29,41.29,0,0,0-20.55,8c-1.56,1.16-2.92,2.65-4.91,3.12-4.79,1.13-9.66.86-14.48.51A121.29,121.29,0,0,1,245,55.62a73.26,73.26,0,0,1-11.74-3.37,7,7,0,0,1-4.32-4.57c-2.13-6.56-4.31-13.11-6.61-19.61-1.1-3.12-2.36-6.17-5.13-8.36-3.16-2.49-6.43-4.83-9.75-7.11a2.16,2.16,0,0,0-2.14-.28,10.92,10.92,0,0,1-5.14.72c-3.33-.5-6.65-1.08-9.94-1.76a4.67,4.67,0,0,0-3.43.61c-1.28.72-2.48,1.6-3.78,2.26-2.08,1-4,2.61-6.38,2.81a7.12,7.12,0,0,0-4.39,1.9A25.2,25.2,0,0,0,167.15,25a2.82,2.82,0,0,1-2.77,1.54,27.16,27.16,0,0,1-13.32-3.87c-4.8-2.67-9.33-5.82-14.34-8.1-3.26-1.48-6.63-2.59-10.27-2.12-5.51.71-11.07.62-16.6,1.12a67.17,67.17,0,0,0-20.06,4.76c-6.25,2.62-11.53,6.3-14.89,12.35a32.67,32.67,0,0,0-4.08,16.6A2.42,2.42,0,0,1,70,49.55c-7,5.63-14,11.24-20.73,17.19s-13.63,12.05-19.6,19a60.63,60.63,0,0,0-8.37,11.5h5.26a66.07,66.07,0,0,1,9-11.45c9-9.64,19.15-18.1,29.32-26.5C67,57.47,69.2,55.74,71.33,54c.79-.66,1.34-1,1.87.31a7.73,7.73,0,0,0,2.89,3.23,6.12,6.12,0,0,1-1.19.66c-.33.14-.67.25-1,.36s-.66.2-1,.32a31.35,31.35,0,0,0-8.71,4.41Q57.26,68.75,63.33,75c1.06,1.09,2.24,2.06,3.51,3.22-1.77.51-3.47.95-5.12,1.5-5.61,1.87-11.07,4-15.63,7.95a21.07,21.07,0,0,0-6,8.23,3.07,3.07,0,0,0-.29,1.25H41c1.45-3.49,4.31-5.81,7.15-8.16,4.49-3.71,10-4.7,15.47-5.64,4.25-.73,8.51-1.31,12.77-2a4.38,4.38,0,0,0,2-.57,44,44,0,0,0-4.87-3.61c-2.18-1.53-4.39-3-6.56-4.6a11.65,11.65,0,0,1-2.33-2.27,2.51,2.51,0,0,1,0-3.42,21.38,21.38,0,0,1,9.8-7.24l1-.35c.72-.25,1.46-.47,2.22-.67a1.91,1.91,0,0,1,.79,0,21.31,21.31,0,0,1,13.8,8.56l.57.81c.55.83,1.07,1.7,1.56,2.62,2.2,4.16,3.31,8.62,4.37,13.12a34.78,34.78,0,0,0,1.29,4.73c1.41,3.7,3.69,5,7.55,4.2a30.19,30.19,0,0,0,3.45-1,53.34,53.34,0,0,0,19.26-11.47,62.37,62.37,0,0,0,7.33-8.09,22,22,0,0,1,5.32-5,6.56,6.56,0,0,1,6.51-.7c7.12,2.93,13.87,6.62,20.92,9.69a131,131,0,0,0,21.86,7.71,43.51,43.51,0,0,0,17,.42c4.29-.68,8.56-1.53,13.13-2.36a85.11,85.11,0,0,0-9.15-.66c-7.51-.54-15-1.27-22.24-3.48-5.38-1.66-10.24-4.58-15.39-6.81-1.63-.71-3.3-1.35-5.26-2.14,2.55-.56,4.87-.69,7.06-1.4a11.93,11.93,0,0,0,4.24-2.05,4,4,0,0,0,1.25-4.85A10.27,10.27,0,0,0,179.4,56c-.77-.59-1.44-1.31-2.18-1.94-.3-.25-.66-.8-1.09-.35s.12.73.42,1a11.64,11.64,0,0,1,1.78,2.11c1.78,2.77,1.27,5.23-1.55,6.94s-5.87,1.88-8.87,2.66c-5.43,1.4-10.29-.89-15.35-1.92-2.28-.46-4.46-1.49-7-1.15.38-1.33,1.64-2,1.9-3.24l-3.56-.38c.1.87-.52,1.43-1,2a66.55,66.55,0,0,1-12.67,12.42,10.81,10.81,0,0,1-5.66,2.09c-.28,0-.57,0-.85,0a13.54,13.54,0,0,1-3.79-.56,21.37,21.37,0,0,1-13.37-10.51c-3.1-5.66-2.42-11.31.22-16.91a29.76,29.76,0,0,1,3.57-5.63,2.49,2.49,0,0,0,.78-1.4,6.14,6.14,0,0,0-4,.55c-1.06,1.83-2.32,3.54-3.26,5.46-5,10.21-2.28,20.6,7.08,27.05,3.91,2.7,8.12,4.45,12.78,4.37l1,0a16.6,16.6,0,0,0,2-.23c1.21-.21,2.37-.65,3.54-1a.61.61,0,0,1-.24.81c-.31.25-.62.5-.94.74l-.89.68a43.71,43.71,0,0,1-14.71,7.58,16.11,16.11,0,0,1-3.72.51,6.58,6.58,0,0,1-6.15-3.32,41.31,41.31,0,0,1-3.41-8.12,42.11,42.11,0,0,0-4.87-9.52c-.28-.41-.58-.82-.88-1.23a41,41,0,0,0-4.92-5.49c-2.18-2-4.1-4.36-6.16-6.54a30.76,30.76,0,0,0-4.25-3.8,7.88,7.88,0,0,1-3.22-8.2c1.65-9.31,6.73-15.7,15.6-19.42C99,19,106.85,17.83,114.87,17.3c3.75-.25,7.52-.33,11.25-.7a17,17,0,0,1,9.43,2.11c4.64,2.32,8.94,5.23,13.49,7.69a51.85,51.85,0,0,0,7.5,3.23C160,30.86,163,33,166,35.06a59.88,59.88,0,0,1,13.17,11.43c.39.49.76,1,1.41,1.87a7.37,7.37,0,0,0-1.22-4.72,54,54,0,0,0-11.67-12l-1-.77a4.2,4.2,0,0,1,2.53-.69c6.66.82,13.27,1.84,19.6,4.2A51.74,51.74,0,0,1,199.33,40a130.12,130.12,0,0,0,26.46,13.1c3.7,1.38,7.06,3.6,10.92,4.71a120.5,120.5,0,0,0,24.42,4.28c2.49.18,5,.23,7.65.35a5,5,0,0,1-1.73,1.47c-6.26,4.26-12.53,8.49-18.77,12.78-1.38.94-2.64,2-3.95,3.09,4-2.07,8-4.11,11.94-6.24,7.19-3.88,14.28-8,21.48-11.81,3-1.62,5.65-3.64,8.47-5.48,8.51-5.54,17.86-6.89,27.75-5.43.7.1,1.39.26,2.09.34a22.67,22.67,0,0,1,13.63,6.66c3.8,3.7,7.66,7.3,10.32,12a16.12,16.12,0,0,1,2.1,7c.32,4.58,3,6,7.05,3.83a26.8,26.8,0,0,0,8.13-6.49,37.39,37.39,0,0,1,3.28-3.24,5.23,5.23,0,0,0-3.55.9,60.14,60.14,0,0,0-8.28,6.37,23.31,23.31,0,0,1-1.93,1.51c-1.42.94-1.9.73-2.11-.92-.17-1.35-.2-2.73-.45-4.06C343,68,339.44,62.41,335.53,57.07c-1.63-2.23-3.44-4.34-5.27-6.63,8.53-3.3,16.67-7.51,26.16-6.35a36.86,36.86,0,0,1,7.5,1.54A7.73,7.73,0,0,1,369,51a63.73,63.73,0,0,1,2.29,13.84,21.61,21.61,0,0,1,.24,3.58c-.17,2.13.85,3.42,2.47,4.61a58.93,58.93,0,0,1,9.35,8.38c5.07,5.74.65,13.39-5.5,14.59A14.28,14.28,0,0,1,374,95.7a49.93,49.93,0,0,0-17.31,1.49h28.19A12.27,12.27,0,0,0,387.24,79.19ZM223.94,50.57c-7.34-3.74-14.48-7.71-20.6-13.4a43.07,43.07,0,0,0-12.8-8.39,33.83,33.83,0,0,0-17-2.38,3.94,3.94,0,0,1-1.9,0,16.38,16.38,0,0,1,3.18-4.67,1.35,1.35,0,0,1,.8-.51c4.45-.41,8.13-2.71,11.83-4.88a5.24,5.24,0,0,1,4-.66c2,.44,4.07.75,6.09,1.22a16.28,16.28,0,0,0,6.81-.15,2.43,2.43,0,0,1,2.13.43c2.4,1.79,4.8,3.58,7.23,5.34S217,27,218,29.59c2.62,7,4.43,14.32,7.3,21.26C224.64,51.13,224.3,50.76,223.94,50.57Z"/><path class="cls-2" d="M158.09,57.45c.28.22.8.34.62.81a1.14,1.14,0,0,1-.78.5c-3.48.56-6.89,1.58-10.47,1.38l-3.56-.38c-1.79-.66-3-2.19-4.53-3.16-.74-.45-1.54-.79-2.31-1.19-.54-.27-.85-.18-1.15.4-2.83,5.6-7.81,8.29-13.54,9.88-1.54.43-3,1.06-4.69.68,4.74-3.82,5.93-8.79,5.93-14.14,0-1.22-.06-2.46-.16-3.72,0-.57,0-1.2-.77-1.47-2.86-1-5.2-2.93-7.77-4.44-1.15-.67-2.26-1.57-3.76-1.31a6.14,6.14,0,0,0-4,.55,54,54,0,0,0-9.81,2.94c-2.4.84-4.78,1.74-7.45,2.72.89-1.73,2.36-2.49,3.52-3.53a37.86,37.86,0,0,1,11.39-7.2c4.1-1.61,8.19-1.08,12.27.06,8.58,2.39,16.58,6.26,24.66,9.89,5.33,2.39,9.92,6.05,14.63,9.46Z"/></g></svg>